<?xml version="1.0" encoding="utf-8"?>
<!-- Generator: Adobe Illustrator 25.3.1, SVG Export Plug-In . SVG Version: 6.00 Build 0)  -->
<svg version="1.1" id="Camada_1" xmlns="http://www.w3.org/2000/svg" xmlns:xlink="http://www.w3.org/1999/xlink" x="0px" y="0px"
	 viewBox="0 0 514 250.9" style="enable-background:new 0 0 514 250.9;" xml:space="preserve">
<style type="text/css">
	.st0{fill:#2477BB;}
	.st1{fill-rule:evenodd;clip-rule:evenodd;fill:#26C1F9;}
	.st2{fill-rule:evenodd;clip-rule:evenodd;fill:#2477BB;}
	.st3{opacity:0.28;fill:url(#SVGID_1_);enable-background:new    ;}
	.st4{opacity:0.55;fill:url(#SVGID_2_);enable-background:new    ;}
	.st5{opacity:0.32;fill:url(#SVGID_3_);enable-background:new    ;}
	.st6{opacity:0.61;fill:url(#SVGID_4_);enable-background:new    ;}
	.st7{opacity:0.12;fill:#231815;enable-background:new    ;}
	.st8{opacity:0.43;fill:#FFFFFF;enable-background:new    ;}
	.st9{opacity:0.12;fill-rule:evenodd;clip-rule:evenodd;fill:#231815;enable-background:new    ;}
</style>
<g>
	<path class="st0" d="M275.1,159.5v-6.2c-4.7,4.9-10.4,7.4-17,7.4c-7.7,0-14.1-2.6-19.1-7.7c-5-5.1-7.5-11.5-7.5-19.1
		c0-7.4,2.4-13.6,7.3-18.7c5-5.2,11.2-7.9,18.7-7.9c6.9,0,12.8,2.5,17.7,7.5V92.2h9.2v67.3H275.1z M240.9,133.7
		c0,5.2,1.7,9.6,5.2,13c3.4,3.4,7.6,5.2,12.4,5.2c4.5,0,8.4-1.8,11.9-5.2s5.2-7.6,5.2-12.3c0-5.1-1.7-9.3-5.2-12.9
		c-3.4-3.5-7.5-5.3-12.1-5.3c-4.8,0-8.9,1.7-12.3,5.1C242.6,124.7,240.9,128.8,240.9,133.7z"/>
	<path class="st0" d="M295.3,159.5V92.2h33.1v9h-23.5v20.1h23.5v8.8h-23.5v29.4L295.3,159.5L295.3,159.5z"/>
	<path class="st0" d="M378.6,159.5v-6.2c-4.7,4.9-10.4,7.4-17,7.4c-7.7,0-14.1-2.6-19.1-7.7c-5-5.1-7.5-11.5-7.5-19.1
		c0-7.4,2.4-13.6,7.3-18.7c5-5.2,11.2-7.9,18.7-7.9c6.9,0,12.8,2.5,17.6,7.5v-6.2h9.3v50.8L378.6,159.5L378.6,159.5z M344.4,133.7
		c0,5.2,1.7,9.6,5.2,13c3.4,3.4,7.6,5.2,12.5,5.2c4.5,0,8.4-1.8,11.9-5.2s5.2-7.6,5.2-12.3c0-5.1-1.7-9.3-5.2-12.9
		c-3.4-3.5-7.5-5.3-12.1-5.3c-4.8,0-8.9,1.7-12.3,5.1C346.1,124.7,344.4,128.8,344.4,133.7z"/>
	<path class="st0" d="M426.3,159.5l-11.7-19.2l-12.3,19.2h-10.1l17.2-26.4l-15.2-24.4h10.2l10.6,17.4l10.8-17.4h10.6l-16.1,24.1
		l16.3,26.7H426.3z"/>
</g>
<g>
	<path class="st1" d="M143.4,106.6c11.2,0,20.3,9.1,20.3,20.3s-9.1,20.3-20.3,20.3c-11.2,0-20.3-9.1-20.3-20.3
		S132.1,106.6,143.4,106.6L143.4,106.6z"/>
	<path class="st2" d="M143.4,61.4c7.7,0,13.9,4.7,13.9,10.5c0,5.8-6.2,10.5-13.9,10.5c-7.7,0-13.9-4.7-13.9-10.5
		c0-0.4,0-0.7,0.1-1.1C130.2,65.6,136.2,61.4,143.4,61.4L143.4,61.4z"/>
	<path class="st2" d="M143.4,170.4c7.7,0,13.9,4.7,13.9,10.5c0,5.8-6.2,10.5-13.9,10.5c-7.7,0-13.9-4.7-13.9-10.5
		C129.4,175.1,135.7,170.4,143.4,170.4L143.4,170.4z"/>
	<path class="st1" d="M209.1,126.4c0,8.2-5,14.9-11.3,14.9s-11.3-6.7-11.3-14.9s5-14.9,11.3-14.9S209.1,118.2,209.1,126.4
		L209.1,126.4z"/>
	<path class="st2" d="M99.3,126.4c0,7.6-4.7,13.8-10.4,13.8c-5.8,0-10.4-6.2-10.4-13.8s4.7-13.8,10.4-13.8
		C94.6,112.6,99.3,118.8,99.3,126.4L99.3,126.4z"/>
	<path class="st2" d="M105.1,66.2c-3.4-4.2-11.6-3-18.3,2.5c-6.7,5.5-9.3,13.3-5.9,17.5c3.4,4.2,11.6,3.1,18.3-2.5
		C105.9,78.2,108.5,70.3,105.1,66.2L105.1,66.2z"/>
	<path class="st2" d="M104.1,186.6c-3.3,4-11.2,2.9-17.6-2.4c-6.4-5.3-9-12.8-5.7-16.8c3.3-4,11.2-2.9,17.6,2.4
		C104.8,175.1,107.3,182.6,104.1,186.6L104.1,186.6z"/>
	<path class="st1" d="M181.5,66.1c0.7-0.9,1.6-1.5,2.7-1.9c3.9-1.5,9.9,0.1,14.9,4.3c6.4,5.3,9,12.8,5.7,16.8
		c-3.3,4-11.2,2.9-17.6-2.4C180.8,77.6,178.2,70.1,181.5,66.1L181.5,66.1z"/>
	<path class="st1" d="M181.5,186.6c3.3,4,11.1,2.9,17.6-2.4c6.4-5.3,9-12.8,5.7-16.8c-3.3-4-11.1-2.9-17.6,2.4
		C180.8,175.1,178.2,182.6,181.5,186.6L181.5,186.6z"/>
	<polygon class="st2" points="136.1,69.4 86.9,120.3 88.6,121.9 88,122.6 92,126.4 141.1,177.4 139.5,179 140.1,179.6 136.1,183.5 
		86.9,132.5 88.6,130.9 88,130.3 92,126.4 141.1,75.5 139.5,73.9 140.1,73.2 	"/>
	
		<linearGradient id="SVGID_1_" gradientUnits="userSpaceOnUse" x1="1821.4208" y1="-113.5605" x2="1843.0017" y2="-113.5605" gradientTransform="matrix(0.9959 -0.4932 -0.5524 -1.1154 -1688.8311 905.0335)">
		<stop  offset="0" style="stop-color:#5CBFFC;stop-opacity:0"/>
		<stop  offset="0.2757" style="stop-color:#5C8AE4;stop-opacity:0.2757"/>
		<stop  offset="0.6158" style="stop-color:#5C4FC9;stop-opacity:0.6158"/>
		<stop  offset="0.8672" style="stop-color:#5C2AB8;stop-opacity:0.8672"/>
		<stop  offset="1" style="stop-color:#5C1CB2"/>
	</linearGradient>
	<path class="st3" d="M201.7,112.4C201.7,112.4,201.7,112.4,201.7,112.4c1.7,1.4,2.5,3.3,3.6,5.5c3.8,7.8,1.3,16.8-5.6,20.3
		c-4,2-6.7-0.3-10.6-2.4c3,4.4,8.6,7.5,13.7,4.3c4.1-2.6,9-12.6,5.1-20.3C206.3,116.5,205.8,114.7,201.7,112.4z"/>
	
		<linearGradient id="SVGID_2_" gradientUnits="userSpaceOnUse" x1="4700.8013" y1="-775.6392" x2="4723.0747" y2="-775.6392" gradientTransform="matrix(0.2714 -0.8869 -1.162 -0.3556 -1986.3894 3978.7524)">
		<stop  offset="0" style="stop-color:#5CBFFC;stop-opacity:0"/>
		<stop  offset="0.2757" style="stop-color:#5C8AE4;stop-opacity:0.2757"/>
		<stop  offset="0.6158" style="stop-color:#5C4FC9;stop-opacity:0.6158"/>
		<stop  offset="0.8672" style="stop-color:#5C2AB8;stop-opacity:0.8672"/>
		<stop  offset="1" style="stop-color:#5C1CB2"/>
	</linearGradient>
	<path class="st4" d="M182.5,65.1C182.5,65.1,182.4,65.1,182.5,65.1c2.2-0.4,4.8-0.8,7.4-0.3c9.1,1.7,14,9.9,13.9,15.7
		c-0.1,3-2.7,6.3-7,7c8.7,1.2,9.7-4.8,9.4-7.6c-0.3-3.8-3.1-8.7-8.3-12.4c-1.6-1.2-2.4-1.7-5.4-2.8
		C188.8,63.2,184.5,63.4,182.5,65.1z"/>
	
		<linearGradient id="SVGID_3_" gradientUnits="userSpaceOnUse" x1="-1544.7408" y1="-1347.3737" x2="-1522.5033" y2="-1347.3737" gradientTransform="matrix(0.8195 0.4312 0.5604 -1.0649 2204.4412 -595.4281)">
		<stop  offset="0" style="stop-color:#5CBFFC;stop-opacity:0"/>
		<stop  offset="0.2757" style="stop-color:#5C8AE4;stop-opacity:0.2757"/>
		<stop  offset="0.6158" style="stop-color:#5C4FC9;stop-opacity:0.6158"/>
		<stop  offset="0.8672" style="stop-color:#5C2AB8;stop-opacity:0.8672"/>
		<stop  offset="1" style="stop-color:#5C1CB2"/>
	</linearGradient>
	<path class="st5" d="M206.2,170.6C206.2,170.6,206.2,170.7,206.2,170.6c-0.5,2.3-1,3.6-2.1,5.8c-4.3,8.1-12.3,11.8-17.9,10.6
		c-2.9-0.6-4.9-4.2-5.3-8.4c-2.6,7.3,2.6,10,5.9,10.3c6.5,0.6,14.4-5.3,16.8-9.4C205.3,176.5,206.5,174.2,206.2,170.6z"/>
	
		<linearGradient id="SVGID_4_" gradientUnits="userSpaceOnUse" x1="-756.4165" y1="-617.5961" x2="-790.8052" y2="-572.5088" gradientTransform="matrix(-0.2176 0.9927 -0.9716 -0.213 -596.4721 772.8244)">
		<stop  offset="0" style="stop-color:#5CBFFC;stop-opacity:0"/>
		<stop  offset="0.2757" style="stop-color:#5C8AE4;stop-opacity:0.2757"/>
		<stop  offset="0.6158" style="stop-color:#5C4FC9;stop-opacity:0.6158"/>
		<stop  offset="0.8672" style="stop-color:#5C2AB8;stop-opacity:0.8672"/>
		<stop  offset="1" style="stop-color:#5C1CB2"/>
	</linearGradient>
	<path class="st6" d="M138.8,146.8c6.9,1.7,14.6-0.5,19.7-6.2c7.6-8.6,6.8-21.7-1.7-29.1c0.5,0.6,4.8,6.8-0.1,20.1
		C151.4,145.7,138.8,146.8,138.8,146.8L138.8,146.8z"/>
	<path class="st7" d="M102.9,64.5c0,0-5.5-3.5-16.1,4.2c0,0-9.8,7.8-6.8,16.2C80,84.8,81.1,67.6,102.9,64.5z"/>
	<path class="st8" d="M141.2,143.3c-0.8-0.7-1.4-1.5-2.1-2.4c-5.3-7.4-3.7-17.7,3.7-23c3.7-2.7,8.1-3.6,12.2-2.9
		c-5.6-5.3-14.4-6.1-20.9-1.3c-7.4,5.3-9,15.6-3.7,23C133.1,140.4,137,142.7,141.2,143.3z"/>
	<path class="st7" d="M85.4,113.4c0,0-7.3,9.4-4.4,17c0,0,3.5,9.1,8.6,9.7c0,0-7.8,1.5-10.8-9.3C76,120,83.9,113.6,85.4,113.4z"/>
	<path class="st9" d="M80.8,167.5c0,0-1.8,16.7,21.1,20.9c0,0-8.5,3.4-18.2-6.8C83.6,181.5,76.4,173.8,80.8,167.5z"/>
	<path class="st7" d="M129.4,180.9c0,0,9.2,17.8,27.7,1.7c0,0-1.5,9.2-16,8.7C141.1,191.3,129.9,190.1,129.4,180.9z"/>
	<path class="st9" d="M129.4,71.9c0,0,9.9-15.5,27-3.6c0,0-3.4-7.7-14.8-6.9C141.7,61.4,130.5,62.5,129.4,71.9z"/>
	<path class="st8" d="M90.6,117.7c0,0,4.4,1.8,5,8.1s-5,10-5,10S98.2,126.1,90.6,117.7z"/>
	<path class="st8" d="M182.8,71.2c0,0,2.4,13.4,15.1,12.4C197.9,83.6,187.4,81.4,182.8,71.2z"/>
	<path class="st8" d="M153.1,177c0,0-10.4-8.8-19.5,0.1C133.6,177,143.1,172.1,153.1,177z"/>
	<path class="st8" d="M133.2,75c0,0,9.6,9.7,19.4,1.7C152.7,76.7,142.7,80.8,133.2,75z"/>
	<path class="st8" d="M192.9,117.2c0,0-8,11,1.5,19.5C194.4,136.7,188.7,127.5,192.9,117.2z"/>
	<path class="st8" d="M87.4,84.8c0,0,13.6,0.5,15.4-12C102.8,72.7,98.3,82.5,87.4,84.8z"/>
	<path class="st8" d="M101.9,183.2c0,0-1.2-13.6-13.9-13.7C88.1,169.5,98.3,172.6,101.9,183.2z"/>
	<path class="st8" d="M197.7,167.6c0,0-13.6,0.9-14,13.6C183.7,181.2,187.1,171,197.7,167.6z"/>
</g>
<text transform="matrix(1 0 0 1 153 -104.7638)" style="font-family:'AvantGardeITCbyBT-Medium'; font-size:12px;">dFax</text>
<text transform="matrix(1 0 0 1 193.145 -104.6197)" style="font-family:'AvantGardeITCbyBT-Medium'; font-size:12px;">dFax</text>
<text transform="matrix(1 0 0 1 154.0796 -80.1682)" style="font-family:'AvantGardeITCbyBT-Medium'; font-size:12px;">dFax</text>
</svg>
