<?xml version="1.0" encoding="utf-8"?>
<!-- Generator: Adobe Illustrator 25.3.1, SVG Export Plug-In . SVG Version: 6.00 Build 0)  -->
<svg version="1.1" id="Camada_1" xmlns="http://www.w3.org/2000/svg" xmlns:xlink="http://www.w3.org/1999/xlink" x="0px" y="0px"
	 viewBox="0 0 514.02 250.86" style="enable-background:new 0 0 514.02 250.86;" xml:space="preserve">
<style type="text/css">
	.st0{fill-rule:evenodd;clip-rule:evenodd;}
	.st1{opacity:0.28;}
	.st2{opacity:0.55;}
	.st3{opacity:0.32;}
	.st4{opacity:0.61;}
	.st5{opacity:0.12;}
	.st6{opacity:0.43;}
	.st7{opacity:0.12;fill-rule:evenodd;clip-rule:evenodd;}
</style>
<g>
	<g>
		<path d="M285.47,163.77v-7.59c-5.75,5.98-12.66,8.97-20.71,8.97c-9.36,0-17.09-3.11-23.18-9.32c-6.1-6.21-9.15-13.96-9.15-23.24
			c0-8.97,2.95-16.53,8.86-22.66c6.06-6.36,13.65-9.55,22.78-9.55c8.36,0,15.53,3.03,21.51,9.09v-27.5h11.16v81.8H285.47z
			 M243.93,132.47c0,6.37,2.09,11.64,6.27,15.82c4.18,4.18,9.22,6.27,15.13,6.27c5.44,0,10.26-2.13,14.44-6.39
			c4.18-4.26,6.27-9.22,6.27-14.9c0-6.13-2.09-11.35-6.27-15.65c-4.18-4.29-9.07-6.44-14.67-6.44c-5.83,0-10.82,2.05-14.96,6.15
			C246,121.45,243.93,126.49,243.93,132.47z"/>
		<path d="M309.97,163.77v-81.8h40.27V92.9h-28.53v24.39h28.53v10.7h-28.53v35.78H309.97z"/>
		<path d="M411.21,163.77v-7.59c-5.75,5.98-12.66,8.97-20.71,8.97c-9.36,0-17.09-3.11-23.18-9.32c-6.1-6.21-9.15-13.96-9.15-23.24
			c0-8.97,2.95-16.53,8.86-22.66c6.06-6.36,13.65-9.55,22.78-9.55c8.44,0,15.57,3.03,21.4,9.09v-7.48h11.28v61.78H411.21z
			 M369.68,132.47c0,6.37,2.09,11.64,6.27,15.82c4.18,4.18,9.22,6.27,15.13,6.27c5.44,0,10.26-2.13,14.44-6.39
			c4.18-4.26,6.27-9.22,6.27-14.9c0-6.13-2.09-11.35-6.27-15.65c-4.18-4.29-9.07-6.44-14.67-6.44c-5.83,0-10.82,2.05-14.96,6.15
			C371.75,121.45,369.68,126.49,369.68,132.47z"/>
		<path d="M469.2,163.77l-14.27-23.36l-14.96,23.36h-12.31l20.94-32.1l-18.52-29.68h12.43l12.89,21.17l13.12-21.17h12.89
			l-19.56,29.34l19.79,32.44H469.2z"/>
	</g>
	<g>
		<path class="st0" d="M125.33,99.5c13.66,0,24.73,11.07,24.73,24.73s-11.07,24.73-24.73,24.73c-13.66,0-24.73-11.07-24.73-24.73
			S111.68,99.5,125.33,99.5L125.33,99.5z"/>
		<path class="st0" d="M125.33,44.55c9.35,0,16.93,5.73,16.93,12.8c0,7.07-7.58,12.8-16.93,12.8c-9.35,0-16.93-5.73-16.93-12.8
			c0-0.43,0.03-0.86,0.08-1.28C109.34,49.6,116.56,44.55,125.33,44.55L125.33,44.55z"/>
		<path class="st0" d="M125.33,177.05c9.35,0,16.93,5.73,16.93,12.8c0,7.07-7.58,12.8-16.93,12.8c-9.35,0-16.93-5.73-16.93-12.8
			C108.41,182.77,115.98,177.05,125.33,177.05L125.33,177.05z"/>
		<path class="st0" d="M205.27,123.6c0,10-6.13,18.11-13.69,18.11c-7.56,0-13.69-8.11-13.69-18.11c0-10,6.13-18.11,13.69-18.11
			C199.14,105.49,205.27,113.6,205.27,123.6L205.27,123.6z"/>
		<path class="st0" d="M71.78,123.6c0,9.27-5.68,16.79-12.69,16.79c-7.01,0-12.69-7.52-12.69-16.79c0-9.27,5.68-16.79,12.69-16.79
			C66.1,106.81,71.78,114.32,71.78,123.6L71.78,123.6z"/>
		<path class="st0" d="M78.8,50.36c-4.16-5.05-14.13-3.71-22.26,3c-8.14,6.7-11.36,16.23-7.2,21.28c4.16,5.05,14.13,3.71,22.26-3
			C79.74,64.93,82.96,55.41,78.8,50.36L78.8,50.36z"/>
		<path class="st0" d="M77.54,196.77c-3.99,4.85-13.56,3.56-21.37-2.88c-7.81-6.43-10.9-15.58-6.91-20.42
			c3.99-4.85,13.56-3.56,21.37,2.88C78.44,182.78,81.53,191.92,77.54,196.77L77.54,196.77z"/>
		<path class="st0" d="M171.66,50.24c0.86-1.04,1.98-1.8,3.28-2.29c4.76-1.77,11.99,0.11,18.13,5.17
			C200.9,59.57,204,68.73,200,73.59c-4,4.85-13.59,3.56-21.41-2.88C170.76,64.26,167.66,55.1,171.66,50.24L171.66,50.24z"/>
		<path class="st0" d="M171.72,196.77c3.99,4.85,13.56,3.56,21.37-2.88c7.81-6.43,10.9-15.58,6.91-20.42
			c-3.99-4.85-13.56-3.56-21.37,2.88C170.82,182.78,167.73,191.92,171.72,196.77L171.72,196.77z"/>
		<polygon class="st0" points="116.47,54.24 56.74,116.18 58.75,118.11 58,118.89 62.89,123.6 122.62,185.53 120.61,187.47 
			121.35,188.24 116.47,192.95 56.74,131.01 58.75,129.08 58,128.31 62.89,123.6 122.62,61.66 120.61,59.72 121.35,58.95 
			116.47,54.24 		"/>
		<path class="st1" d="M196.24,106.57C196.27,106.6,196.22,106.54,196.24,106.57c2.05,1.75,3.05,4.06,4.35,6.69
			c4.67,9.43,1.63,20.46-6.79,24.63c-4.87,2.41-8.12-0.35-12.88-2.94c3.6,5.3,10.41,9.09,16.63,5.17
			c5.04-3.17,10.89-15.26,6.22-24.69C201.82,111.5,201.16,109.38,196.24,106.57z"/>
		<path class="st2" d="M172.85,49.1C172.89,49.1,172.81,49.09,172.85,49.1c2.71-0.55,5.85-0.97,8.96-0.39
			c11.04,2.07,17.03,12.09,16.9,19.1c-0.07,3.63-3.31,7.66-8.52,8.49c10.63,1.42,11.74-5.89,11.47-9.24
			c-0.37-4.58-3.79-10.58-10.14-15.13c-1.98-1.42-2.96-2.06-6.62-3.47C180.53,46.79,175.29,46.99,172.85,49.1z"/>
		<path class="st3" d="M201.67,177.31c-0.01,0.04-0.02,0.08-0.03,0.11c-0.53,2.69-1.13,4.25-2.58,6.99
			c-5.19,9.86-14.97,14.33-21.82,12.88c-3.55-0.75-5.91-5.08-6.44-10.26c-3.22,8.87,3.17,12.17,7.13,12.51
			c7.94,0.68,17.54-6.46,20.46-11.38C200.6,184.44,202.02,181.64,201.67,177.31z"/>
		<path class="st4" d="M119.82,148.34c8.43,2.02,17.8-0.62,23.9-7.51c9.2-10.42,8.22-26.35-2.07-35.34
			c0.57,0.76,5.87,8.26-0.15,24.43c-6.36,17.07-21.7,18.39-21.7,18.39L119.82,148.34z"/>
		<path class="st5" d="M76.13,48.3c0,0-6.71-4.32-19.59,5.06c0,0-11.85,9.53-8.23,19.63C48.31,72.99,49.59,52.14,76.13,48.3z"/>
		<path class="st6" d="M122.69,144.14c-0.91-0.86-1.76-1.81-2.53-2.86c-6.48-8.97-4.47-21.49,4.5-27.98
			c4.46-3.22,9.8-4.34,14.83-3.56c-6.86-6.45-17.54-7.36-25.45-1.64c-8.97,6.48-10.98,19.01-4.5,27.98
			C112.8,140.59,117.59,143.34,122.69,144.14z"/>
		<path class="st5" d="M54.92,107.74c0,0-8.86,11.44-5.3,20.62c0,0,4.27,11.05,10.47,11.81c0,0-9.5,1.79-13.06-11.32
			S53.04,108.01,54.92,107.74z"/>
		<path class="st7" d="M49.26,173.47c0,0-2.23,20.32,25.59,25.34c0,0-10.38,4.17-22.17-8.32C52.69,190.49,43.89,181.13,49.26,173.47
			z"/>
		<path class="st5" d="M108.41,189.84c0,0,11.14,21.61,33.65,2.01c0,0-1.79,11.24-19.44,10.62
			C122.62,202.47,108.98,201.04,108.41,189.84z"/>
		<path class="st7" d="M108.41,57.35c0,0,12.04-18.81,32.82-4.43c0,0-4.2-9.38-17.94-8.37C123.28,44.55,109.69,45.86,108.41,57.35z"
			/>
		<path class="st6" d="M61.19,112.99c0,0,5.3,2.13,6.06,9.9c0.76,7.77-6.06,12.11-6.06,12.11S70.44,123.22,61.19,112.99z"/>
		<path class="st6" d="M173.26,56.5c0,0,2.95,16.29,18.32,15.07C191.59,71.57,178.79,68.86,173.26,56.5z"/>
		<path class="st6" d="M137.2,185.05c0,0-12.65-10.67-23.72,0.07C113.47,185.12,125.06,179.05,137.2,185.05z"/>
		<path class="st6" d="M112.99,61.13c0,0,11.65,11.75,23.64,2.04C136.63,63.17,124.55,68.18,112.99,61.13z"/>
		<path class="st6" d="M185.56,112.37c0,0-9.71,13.41,1.82,23.66C187.38,136.03,180.47,124.92,185.56,112.37z"/>
		<path class="st6" d="M57.33,72.95c0,0,16.54,0.66,18.69-14.62C76.01,58.33,70.59,70.24,57.33,72.95z"/>
		<path class="st6" d="M74.98,192.57c0,0-1.45-16.49-16.88-16.67C58.1,175.9,70.6,179.76,74.98,192.57z"/>
		<path class="st6" d="M191.34,173.67c0,0-16.51,1.14-16.99,16.56C174.35,190.22,178.45,177.8,191.34,173.67z"/>
	</g>
</g>
</svg>
