<?xml version="1.0" encoding="utf-8"?>
<!-- Generator: Adobe Illustrator 25.3.1, SVG Export Plug-In . SVG Version: 6.00 Build 0)  -->
<svg version="1.1" id="图层_1" xmlns="http://www.w3.org/2000/svg" xmlns:xlink="http://www.w3.org/1999/xlink" x="0px" y="0px"
	 viewBox="0 0 272.13 272.13" style="enable-background:new 0 0 272.13 272.13;" xml:space="preserve">
<style type="text/css">
	.st0{fill:#26C1F9;}
	.st1{fill:#0D0D0C;}
	.st2{fill-rule:evenodd;clip-rule:evenodd;fill:#26C1F9;}
	.st3{fill-rule:evenodd;clip-rule:evenodd;fill:#2477BB;}
	.st4{opacity:0.28;fill:url(#SVGID_1_);}
	.st5{opacity:0.55;fill:url(#SVGID_2_);}
	.st6{opacity:0.32;fill:url(#SVGID_3_);}
	.st7{opacity:0.61;fill:url(#SVGID_4_);}
	.st8{opacity:0.12;fill:#231815;}
	.st9{opacity:0.43;fill:#FFFFFF;}
	.st10{opacity:0.12;fill-rule:evenodd;clip-rule:evenodd;fill:#231815;}
	.st11{opacity:0.28;fill:url(#SVGID_5_);}
	.st12{opacity:0.55;fill:url(#SVGID_6_);}
	.st13{opacity:0.32;fill:url(#SVGID_7_);}
	.st14{opacity:0.61;fill:url(#SVGID_8_);}
	.st15{fill-rule:evenodd;clip-rule:evenodd;fill:#EFEFEF;}
	.st16{opacity:0.28;fill:#EFEFEF;}
	.st17{opacity:0.55;fill:#EFEFEF;}
	.st18{opacity:0.32;fill:#EFEFEF;}
	.st19{opacity:0.61;fill:#EFEFEF;}
	.st20{opacity:0.12;fill:#EFEFEF;}
	.st21{opacity:0.43;fill:#EFEFEF;}
	.st22{opacity:0.12;fill-rule:evenodd;clip-rule:evenodd;fill:#EFEFEF;}
	.st23{fill:#2477BB;}
</style>
<rect x="1192.32" y="-0.36" class="st0" width="274.4" height="272.49"/>
<rect x="304.98" y="-0.36" class="st1" width="274.4" height="272.49"/>
<g>
	<path class="st2" d="M442.91,117.96c10.27,0,18.6,8.33,18.6,18.6s-8.33,18.6-18.6,18.6c-10.27,0-18.6-8.33-18.6-18.6
		S432.64,117.96,442.91,117.96L442.91,117.96z"/>
	<path class="st3" d="M442.91,76.64c7.03,0,12.73,4.31,12.73,9.63c0,5.32-5.7,9.62-12.73,9.62c-7.03,0-12.73-4.31-12.73-9.62
		c0-0.33,0.02-0.65,0.06-0.96C430.88,80.43,436.31,76.64,442.91,76.64L442.91,76.64z"/>
	<path class="st3" d="M442.91,176.3c7.03,0,12.73,4.31,12.73,9.63c0,5.32-5.7,9.62-12.73,9.62c-7.03,0-12.73-4.31-12.73-9.62
		C430.18,180.61,435.88,176.3,442.91,176.3L442.91,176.3z"/>
	<path class="st2" d="M503.04,136.09c0,7.52-4.61,13.62-10.29,13.62c-5.69,0-10.29-6.1-10.29-13.62c0-7.52,4.61-13.62,10.29-13.62
		C498.43,122.47,503.04,128.57,503.04,136.09L503.04,136.09z"/>
	<path class="st3" d="M402.63,136.09c0,6.98-4.27,12.63-9.55,12.63c-5.27,0-9.55-5.66-9.55-12.63c0-6.98,4.27-12.63,9.55-12.63
		C398.36,123.46,402.63,129.12,402.63,136.09L402.63,136.09z"/>
	<path class="st3" d="M407.91,81c-3.13-3.8-10.63-2.79-16.75,2.26c-6.12,5.04-8.54,12.21-5.42,16.01c3.13,3.8,10.63,2.79,16.75-2.26
		C408.61,91.97,411.04,84.8,407.91,81L407.91,81z"/>
	<path class="st3" d="M406.96,191.13c-3,3.64-10.2,2.68-16.07-2.16c-5.87-4.84-8.2-11.72-5.2-15.36c3-3.64,10.2-2.68,16.07,2.16
		C407.64,180.61,409.97,187.49,406.96,191.13L406.96,191.13z"/>
	<path class="st2" d="M477.76,80.91c0.65-0.79,1.49-1.36,2.47-1.72c3.58-1.33,9.02,0.08,13.64,3.89c5.89,4.85,8.22,11.74,5.21,15.39
		c-3.01,3.65-10.22,2.68-16.1-2.17C477.08,91.46,474.75,84.57,477.76,80.91L477.76,80.91z"/>
	<path class="st2" d="M477.81,191.13c3,3.64,10.2,2.68,16.07-2.16c5.87-4.84,8.2-11.72,5.2-15.36c-3-3.64-10.2-2.68-16.07,2.16
		C477.13,180.61,474.8,187.49,477.81,191.13L477.81,191.13z"/>
	<polygon class="st3" points="436.25,83.92 391.32,130.51 392.83,131.97 392.27,132.55 395.94,136.09 440.87,182.68 439.36,184.14 
		439.92,184.72 436.25,188.26 391.32,141.67 392.83,140.22 392.27,139.63 395.94,136.09 440.87,89.5 439.36,88.05 439.92,87.47 
		436.25,83.92 	"/>
	
		<linearGradient id="SVGID_1_" gradientUnits="userSpaceOnUse" x1="1460.5068" y1="485.1383" x2="1480.2332" y2="485.1383" gradientTransform="matrix(0.9959 -0.4932 0.5524 1.1154 -1238.9086 321.6692)">
		<stop  offset="0" style="stop-color:#5CBFFC;stop-opacity:0"/>
		<stop  offset="0.2757" style="stop-color:#5C8AE4;stop-opacity:0.2757"/>
		<stop  offset="0.6158" style="stop-color:#5C4FC9;stop-opacity:0.6158"/>
		<stop  offset="0.8672" style="stop-color:#5C2AB8;stop-opacity:0.8672"/>
		<stop  offset="1" style="stop-color:#5C1CB2"/>
	</linearGradient>
	<path class="st4" d="M496.25,123.28C496.27,123.3,496.23,123.26,496.25,123.28c1.54,1.32,2.29,3.06,3.27,5.03
		c3.51,7.09,1.23,15.39-5.11,18.52c-3.66,1.81-6.11-0.26-9.69-2.21c2.71,3.98,7.83,6.84,12.51,3.89c3.79-2.39,8.19-11.48,4.68-18.57
		C500.45,126.99,499.95,125.4,496.25,123.28z"/>
	
		<linearGradient id="SVGID_2_" gradientUnits="userSpaceOnUse" x1="3083.0481" y1="1128.2903" x2="3103.4141" y2="1128.2903" gradientTransform="matrix(0.2714 -0.8869 1.162 0.3556 -1661.6143 2431.8447)">
		<stop  offset="0" style="stop-color:#5CBFFC;stop-opacity:0"/>
		<stop  offset="0.2757" style="stop-color:#5C8AE4;stop-opacity:0.2757"/>
		<stop  offset="0.6158" style="stop-color:#5C4FC9;stop-opacity:0.6158"/>
		<stop  offset="0.8672" style="stop-color:#5C2AB8;stop-opacity:0.8672"/>
		<stop  offset="1" style="stop-color:#5C1CB2"/>
	</linearGradient>
	<path class="st5" d="M478.66,80.05C478.69,80.05,478.63,80.05,478.66,80.05c2.04-0.42,4.4-0.73,6.74-0.29
		c8.31,1.56,12.81,9.1,12.71,14.37c-0.05,2.73-2.49,5.76-6.41,6.39c7.99,1.07,8.83-4.43,8.63-6.95c-0.28-3.45-2.85-7.96-7.63-11.38
		c-1.49-1.07-2.23-1.55-4.98-2.61C484.43,78.32,480.5,78.47,478.66,80.05z"/>
	
		<linearGradient id="SVGID_3_" gradientUnits="userSpaceOnUse" x1="-757.5351" y1="871.1661" x2="-737.2017" y2="871.1661" gradientTransform="matrix(0.8195 0.4312 -0.5604 1.0649 1588.5913 -422.0695)">
		<stop  offset="0" style="stop-color:#5CBFFC;stop-opacity:0"/>
		<stop  offset="0.2757" style="stop-color:#5C8AE4;stop-opacity:0.2757"/>
		<stop  offset="0.6158" style="stop-color:#5C4FC9;stop-opacity:0.6158"/>
		<stop  offset="0.8672" style="stop-color:#5C2AB8;stop-opacity:0.8672"/>
		<stop  offset="1" style="stop-color:#5C1CB2"/>
	</linearGradient>
	<path class="st6" d="M500.33,176.49c-0.01,0.03-0.02,0.06-0.03,0.09c-0.4,2.02-0.85,3.19-1.94,5.26
		c-3.9,7.41-11.26,10.78-16.41,9.69c-2.67-0.56-4.45-3.82-4.85-7.72c-2.42,6.67,2.39,9.15,5.37,9.41
		c5.97,0.51,13.19-4.86,15.39-8.56C499.53,181.86,500.59,179.75,500.33,176.49z"/>
	
		<linearGradient id="SVGID_4_" gradientUnits="userSpaceOnUse" x1="-825.852" y1="1169.3575" x2="-857.2949" y2="1128.1323" gradientTransform="matrix(-0.2176 0.9927 0.9716 0.213 -850.22 731.5699)">
		<stop  offset="0" style="stop-color:#5CBFFC;stop-opacity:0"/>
		<stop  offset="0.2757" style="stop-color:#5C8AE4;stop-opacity:0.2757"/>
		<stop  offset="0.6158" style="stop-color:#5C4FC9;stop-opacity:0.6158"/>
		<stop  offset="0.8672" style="stop-color:#5C2AB8;stop-opacity:0.8672"/>
		<stop  offset="1" style="stop-color:#5C1CB2"/>
	</linearGradient>
	<path class="st7" d="M438.76,154.71c6.34,1.52,13.39-0.46,17.98-5.65c6.92-7.84,6.19-19.82-1.56-26.58
		c0.43,0.57,4.41,6.21-0.11,18.38c-4.78,12.84-16.32,13.84-16.32,13.84L438.76,154.71z"/>
	<path class="st8" d="M405.9,79.45c0,0-5.05-3.25-14.74,3.81c0,0-8.91,7.17-6.19,14.77C384.98,98.03,385.94,82.34,405.9,79.45z"/>
	<path class="st9" d="M440.92,151.54c-0.69-0.65-1.33-1.36-1.9-2.15c-4.88-6.75-3.36-16.17,3.38-21.04
		c3.35-2.42,7.37-3.27,11.16-2.67c-5.16-4.85-13.19-5.53-19.14-1.23c-6.75,4.88-8.26,14.3-3.38,21.04
		C433.49,148.88,437.09,150.94,440.92,151.54z"/>
	<path class="st8" d="M389.95,124.16c0,0-6.67,8.61-3.99,15.51c0,0,3.21,8.31,7.88,8.88c0,0-7.15,1.35-9.83-8.52
		C381.33,130.17,388.53,124.37,389.95,124.16z"/>
	<path class="st10" d="M385.69,173.61c0,0-1.68,15.29,19.25,19.06c0,0-7.81,3.14-16.68-6.26
		C388.27,186.41,381.65,179.37,385.69,173.61z"/>
	<path class="st8" d="M430.18,185.92c0,0,8.38,16.26,25.31,1.51c0,0-1.34,8.45-14.62,7.99
		C440.87,195.42,430.61,194.35,430.18,185.92z"/>
	<path class="st10" d="M430.18,86.26c0,0,9.06-14.15,24.68-3.33c0,0-3.16-7.06-13.49-6.3C441.37,76.64,431.15,77.62,430.18,86.26z"
		/>
	<path class="st9" d="M394.67,128.11c0,0,3.99,1.6,4.56,7.44c0.57,5.84-4.56,9.11-4.56,9.11S401.63,135.81,394.67,128.11z"/>
	<path class="st9" d="M478.97,85.62c0,0,2.22,12.25,13.78,11.34C492.75,96.96,483.12,94.92,478.97,85.62z"/>
	<path class="st9" d="M451.84,182.32c0,0-9.52-8.03-17.85,0.05C433.99,182.37,442.71,177.8,451.84,182.32z"/>
	<path class="st9" d="M433.63,89.1c0,0,8.77,8.84,17.78,1.53C451.41,90.64,442.32,94.41,433.63,89.1z"/>
	<path class="st9" d="M488.21,127.65c0,0-7.3,10.08,1.37,17.79C489.58,145.44,484.39,137.09,488.21,127.65z"/>
	<path class="st9" d="M391.76,97.99c0,0,12.44,0.5,14.06-10.99C405.82,87,401.73,95.96,391.76,97.99z"/>
	<path class="st9" d="M405.04,187.97c0,0-1.09-12.4-12.7-12.54C392.34,175.43,401.75,178.34,405.04,187.97z"/>
	<path class="st9" d="M492.56,173.76c0,0-12.42,0.86-12.78,12.45C479.78,186.21,482.87,176.86,492.56,173.76z"/>
</g>
<g>
	<path class="st2" d="M135.72,119.81c9.02,0,16.33,7.31,16.33,16.33s-7.31,16.33-16.33,16.33c-9.02,0-16.33-7.31-16.33-16.33
		S126.69,119.81,135.72,119.81L135.72,119.81z"/>
	<path class="st3" d="M135.72,83.52c6.18,0,11.18,3.78,11.18,8.45c0,4.67-5.01,8.45-11.18,8.45c-6.18,0-11.18-3.78-11.18-8.45
		c0-0.29,0.02-0.57,0.06-0.85C125.15,86.85,129.92,83.52,135.72,83.52L135.72,83.52z"/>
	<path class="st3" d="M135.72,171.03c6.18,0,11.18,3.78,11.18,8.45c0,4.67-5.01,8.45-11.18,8.45c-6.18,0-11.18-3.78-11.18-8.45
		C124.53,174.82,129.54,171.03,135.72,171.03L135.72,171.03z"/>
	<path class="st2" d="M188.52,135.73c0,6.6-4.05,11.96-9.04,11.96c-4.99,0-9.04-5.35-9.04-11.96c0-6.6,4.05-11.96,9.04-11.96
		C184.47,123.77,188.52,129.12,188.52,135.73L188.52,135.73z"/>
	<path class="st3" d="M100.34,135.73c0,6.13-3.75,11.09-8.38,11.09c-4.63,0-8.38-4.97-8.38-11.09c0-6.13,3.75-11.09,8.38-11.09
		C96.59,124.64,100.34,129.6,100.34,135.73L100.34,135.73z"/>
	<path class="st3" d="M104.98,87.35c-2.75-3.33-9.33-2.45-14.7,1.98c-5.37,4.43-7.5,10.72-4.76,14.06c2.75,3.33,9.33,2.45,14.7-1.98
		C105.6,96.98,107.73,90.69,104.98,87.35L104.98,87.35z"/>
	<path class="st3" d="M104.15,184.06c-2.64,3.2-8.96,2.35-14.11-1.9c-5.16-4.25-7.2-10.29-4.56-13.49c2.64-3.2,8.96-2.35,14.11,1.9
		C104.74,174.82,106.79,180.86,104.15,184.06L104.15,184.06z"/>
	<path class="st2" d="M166.32,87.28c0.57-0.69,1.31-1.19,2.17-1.51c3.14-1.17,7.92,0.07,11.97,3.42c5.17,4.26,7.22,10.31,4.57,13.52
		c-2.64,3.21-8.97,2.35-14.14-1.9C165.72,96.53,163.67,90.48,166.32,87.28L166.32,87.28z"/>
	<path class="st2" d="M166.35,184.06c2.64,3.2,8.96,2.35,14.11-1.9c5.16-4.25,7.2-10.29,4.56-13.49c-2.64-3.2-8.96-2.35-14.11,1.9
		C165.76,174.82,163.72,180.86,166.35,184.06L166.35,184.06z"/>
	<polygon class="st3" points="129.86,89.92 90.41,130.83 91.73,132.11 91.24,132.62 94.47,135.73 133.92,176.64 132.59,177.92 
		133.09,178.43 129.86,181.54 90.41,140.63 91.73,139.35 91.24,138.84 94.47,135.73 133.92,94.82 132.59,93.54 133.09,93.03 
		129.86,89.92 	"/>
	
		<linearGradient id="SVGID_5_" gradientUnits="userSpaceOnUse" x1="1209.2566" y1="373.0164" x2="1226.5784" y2="373.0164" gradientTransform="matrix(0.9959 -0.4932 0.5524 1.1154 -1238.9086 321.6692)">
		<stop  offset="0" style="stop-color:#5CBFFC;stop-opacity:0"/>
		<stop  offset="0.2757" style="stop-color:#5C8AE4;stop-opacity:0.2757"/>
		<stop  offset="0.6158" style="stop-color:#5C4FC9;stop-opacity:0.6158"/>
		<stop  offset="0.8672" style="stop-color:#5C2AB8;stop-opacity:0.8672"/>
		<stop  offset="1" style="stop-color:#5C1CB2"/>
	</linearGradient>
	<path class="st11" d="M182.55,124.48C182.57,124.5,182.54,124.46,182.55,124.48c1.35,1.16,2.01,2.68,2.87,4.42
		c3.09,6.23,1.08,13.51-4.48,16.27c-3.21,1.59-5.37-0.23-8.51-1.94c2.38,3.5,6.88,6,10.98,3.42c3.33-2.1,7.19-10.08,4.11-16.31
		C186.24,127.74,185.8,126.34,182.55,124.48z"/>
	
		<linearGradient id="SVGID_6_" gradientUnits="userSpaceOnUse" x1="2980.1614" y1="883.4236" x2="2998.0447" y2="883.4236" gradientTransform="matrix(0.2714 -0.8869 1.162 0.3556 -1661.6143 2431.8447)">
		<stop  offset="0" style="stop-color:#5CBFFC;stop-opacity:0"/>
		<stop  offset="0.2757" style="stop-color:#5C8AE4;stop-opacity:0.2757"/>
		<stop  offset="0.6158" style="stop-color:#5C4FC9;stop-opacity:0.6158"/>
		<stop  offset="0.8672" style="stop-color:#5C2AB8;stop-opacity:0.8672"/>
		<stop  offset="1" style="stop-color:#5C1CB2"/>
	</linearGradient>
	<path class="st12" d="M167.1,86.52C167.13,86.52,167.08,86.52,167.1,86.52c1.79-0.37,3.86-0.64,5.92-0.26
		c7.3,1.37,11.25,7.99,11.16,12.62c-0.04,2.4-2.18,5.06-5.62,5.61c7.02,0.94,7.76-3.89,7.58-6.11c-0.24-3.03-2.51-6.99-6.7-9.99
		c-1.31-0.94-1.96-1.36-4.37-2.29C172.17,84.99,168.72,85.13,167.1,86.52z"/>
	
		<linearGradient id="SVGID_7_" gradientUnits="userSpaceOnUse" x1="-1058.212" y1="987.6642" x2="-1040.3572" y2="987.6642" gradientTransform="matrix(0.8195 0.4312 -0.5604 1.0649 1588.5913 -422.0695)">
		<stop  offset="0" style="stop-color:#5CBFFC;stop-opacity:0"/>
		<stop  offset="0.2757" style="stop-color:#5C8AE4;stop-opacity:0.2757"/>
		<stop  offset="0.6158" style="stop-color:#5C4FC9;stop-opacity:0.6158"/>
		<stop  offset="0.8672" style="stop-color:#5C2AB8;stop-opacity:0.8672"/>
		<stop  offset="1" style="stop-color:#5C1CB2"/>
	</linearGradient>
	<path class="st13" d="M186.14,171.2c-0.01,0.03-0.02,0.05-0.02,0.08c-0.35,1.78-0.75,2.81-1.7,4.62
		c-3.43,6.51-9.89,9.46-14.41,8.51c-2.34-0.49-3.9-3.36-4.26-6.78c-2.13,5.86,2.1,8.04,4.71,8.26c5.24,0.45,11.58-4.27,13.51-7.52
		C185.43,175.91,186.37,174.06,186.14,171.2z"/>
	
		<linearGradient id="SVGID_8_" gradientUnits="userSpaceOnUse" x1="-763.7912" y1="864.2219" x2="-791.4014" y2="828.0219" gradientTransform="matrix(-0.2176 0.9927 0.9716 0.213 -850.22 731.5699)">
		<stop  offset="0" style="stop-color:#5CBFFC;stop-opacity:0"/>
		<stop  offset="0.2757" style="stop-color:#5C8AE4;stop-opacity:0.2757"/>
		<stop  offset="0.6158" style="stop-color:#5C4FC9;stop-opacity:0.6158"/>
		<stop  offset="0.8672" style="stop-color:#5C2AB8;stop-opacity:0.8672"/>
		<stop  offset="1" style="stop-color:#5C1CB2"/>
	</linearGradient>
	<path class="st14" d="M132.07,152.07c5.57,1.33,11.76-0.41,15.79-4.96c6.08-6.88,5.43-17.41-1.37-23.34
		c0.38,0.5,3.88,5.45-0.1,16.14c-4.2,11.27-14.33,12.15-14.33,12.15L132.07,152.07z"/>
	<path class="st8" d="M103.21,85.99c0,0-4.43-2.85-12.94,3.34c0,0-7.83,6.3-5.43,12.97C84.84,102.3,85.69,88.53,103.21,85.99z"/>
	<path class="st9" d="M133.97,149.3c-0.6-0.57-1.17-1.19-1.67-1.89c-4.28-5.92-2.95-14.2,2.97-18.48c2.94-2.13,6.47-2.87,9.8-2.35
		c-4.53-4.26-11.58-4.86-16.81-1.08c-5.92,4.28-7.25,12.56-2.97,18.48C127.44,146.96,130.6,148.77,133.97,149.3z"/>
	<path class="st8" d="M89.21,125.25c0,0-5.85,7.56-3.5,13.62c0,0,2.82,7.3,6.92,7.8c0,0-6.27,1.19-8.63-7.48
		C81.64,130.53,87.96,125.44,89.21,125.25z"/>
	<path class="st10" d="M85.47,168.67c0,0-1.47,13.42,16.9,16.74c0,0-6.86,2.76-14.64-5.5C87.73,179.91,81.92,173.73,85.47,168.67z"
		/>
	<path class="st8" d="M124.53,179.48c0,0,7.36,14.28,22.22,1.33c0,0-1.18,7.42-12.84,7.01
		C133.92,187.83,124.91,186.88,124.53,179.48z"/>
	<path class="st10" d="M124.53,91.97c0,0,7.95-12.42,21.68-2.92c0,0-2.77-6.2-11.85-5.53C134.36,83.52,125.38,84.38,124.53,91.97z"
		/>
	<path class="st9" d="M93.35,128.72c0,0,3.5,1.41,4,6.54c0.5,5.13-4,8-4,8S99.46,135.48,93.35,128.72z"/>
	<path class="st9" d="M167.37,91.41c0,0,1.95,10.76,12.1,9.95C179.48,101.37,171.02,99.57,167.37,91.41z"/>
	<path class="st9" d="M143.55,176.32c0,0-8.36-7.05-15.67,0.05C127.88,176.36,135.54,172.36,143.55,176.32z"/>
	<path class="st9" d="M127.57,94.47c0,0,7.7,7.76,15.61,1.35C143.18,95.81,135.19,99.13,127.57,94.47z"/>
	<path class="st9" d="M175.49,128.32c0,0-6.41,8.85,1.2,15.62C176.7,143.94,172.13,136.6,175.49,128.32z"/>
	<path class="st9" d="M90.79,102.27c0,0,10.92,0.44,12.34-9.65C103.14,92.62,99.55,100.48,90.79,102.27z"/>
	<path class="st9" d="M102.46,181.28c0,0-0.96-10.89-11.15-11.01C91.31,170.27,99.57,172.83,102.46,181.28z"/>
	<path class="st9" d="M179.31,168.8c0,0-10.91,0.75-11.22,10.94C168.09,179.74,170.8,171.53,179.31,168.8z"/>
</g>
<g>
	<path class="st15" d="M1329.17,119.99c9.02,0,16.33,7.31,16.33,16.33s-7.31,16.33-16.33,16.33c-9.02,0-16.33-7.31-16.33-16.33
		S1320.15,119.99,1329.17,119.99L1329.17,119.99z"/>
	<path class="st15" d="M1329.17,83.7c6.18,0,11.18,3.78,11.18,8.45c0,4.67-5.01,8.45-11.18,8.45s-11.18-3.78-11.18-8.45
		c0-0.29,0.02-0.57,0.06-0.85C1318.61,87.03,1323.38,83.7,1329.17,83.7L1329.17,83.7z"/>
	<path class="st15" d="M1329.17,171.21c6.18,0,11.18,3.78,11.18,8.45c0,4.67-5.01,8.45-11.18,8.45s-11.18-3.78-11.18-8.45
		C1317.99,175,1323,171.21,1329.17,171.21L1329.17,171.21z"/>
	<path class="st15" d="M1381.97,135.91c0,6.6-4.05,11.96-9.04,11.96c-4.99,0-9.04-5.35-9.04-11.96c0-6.6,4.05-11.96,9.04-11.96
		C1377.93,123.95,1381.97,129.3,1381.97,135.91L1381.97,135.91z"/>
	<path class="st15" d="M1293.8,135.91c0,6.13-3.75,11.09-8.38,11.09c-4.63,0-8.38-4.97-8.38-11.09c0-6.13,3.75-11.09,8.38-11.09
		C1290.05,124.82,1293.8,129.78,1293.8,135.91L1293.8,135.91z"/>
	<path class="st15" d="M1298.44,87.53c-2.75-3.33-9.33-2.45-14.7,1.98c-5.37,4.43-7.5,10.72-4.76,14.06
		c2.75,3.33,9.33,2.45,14.7-1.98C1299.06,97.16,1301.18,90.87,1298.44,87.53L1298.44,87.53z"/>
	<path class="st15" d="M1297.61,184.24c-2.64,3.2-8.96,2.35-14.11-1.9c-5.16-4.25-7.2-10.29-4.56-13.49
		c2.64-3.2,8.96-2.35,14.11,1.9C1298.2,175,1300.24,181.04,1297.61,184.24L1297.61,184.24z"/>
	<path class="st15" d="M1359.77,87.46c0.57-0.69,1.31-1.19,2.17-1.51c3.14-1.17,7.92,0.07,11.97,3.42
		c5.17,4.26,7.22,10.31,4.57,13.52c-2.64,3.21-8.97,2.35-14.14-1.9C1359.18,96.71,1357.13,90.66,1359.77,87.46L1359.77,87.46z"/>
	<path class="st15" d="M1359.81,184.24c2.64,3.2,8.96,2.35,14.11-1.9c5.16-4.25,7.2-10.29,4.56-13.49c-2.64-3.2-8.96-2.35-14.11,1.9
		C1359.22,175,1357.18,181.04,1359.81,184.24L1359.81,184.24z"/>
	<polygon class="st15" points="1323.32,90.1 1283.87,131.01 1285.19,132.29 1284.7,132.8 1287.93,135.91 1327.38,176.82 
		1326.05,178.1 1326.55,178.61 1323.32,181.72 1283.87,140.81 1285.19,139.53 1284.7,139.02 1287.93,135.91 1327.38,95 
		1326.05,93.72 1326.55,93.21 1323.32,90.1 	"/>
	<path class="st16" d="M1376.01,124.66C1376.03,124.68,1375.99,124.64,1376.01,124.66c1.35,1.16,2.01,2.68,2.87,4.42
		c3.09,6.23,1.08,13.51-4.48,16.27c-3.21,1.59-5.37-0.23-8.51-1.94c2.38,3.5,6.88,6,10.98,3.42c3.33-2.1,7.19-10.08,4.11-16.31
		C1379.69,127.92,1379.26,126.52,1376.01,124.66z"/>
	<path class="st17" d="M1360.56,86.7C1360.59,86.7,1360.54,86.7,1360.56,86.7c1.79-0.37,3.86-0.64,5.92-0.26
		c7.3,1.37,11.25,7.99,11.16,12.62c-0.04,2.4-2.18,5.06-5.62,5.61c7.02,0.94,7.76-3.89,7.58-6.11c-0.24-3.03-2.51-6.99-6.7-9.99
		c-1.31-0.94-1.96-1.36-4.37-2.29C1365.63,85.17,1362.17,85.31,1360.56,86.7z"/>
	<path class="st18" d="M1379.59,171.39c-0.01,0.03-0.02,0.05-0.02,0.08c-0.35,1.78-0.75,2.81-1.7,4.62
		c-3.43,6.51-9.89,9.46-14.41,8.51c-2.34-0.49-3.9-3.36-4.26-6.78c-2.13,5.86,2.1,8.04,4.71,8.26c5.24,0.45,11.58-4.27,13.51-7.52
		C1378.89,176.1,1379.82,174.24,1379.59,171.39z"/>
	<path class="st19" d="M1325.53,152.25c5.57,1.33,11.76-0.41,15.79-4.96c6.08-6.88,5.43-17.41-1.37-23.34
		c0.38,0.5,3.88,5.45-0.1,16.14c-4.2,11.27-14.33,12.15-14.33,12.15L1325.53,152.25z"/>
	<path class="st20" d="M1296.67,86.17c0,0-4.43-2.85-12.94,3.34c0,0-7.83,6.3-5.43,12.97C1278.3,102.48,1279.15,88.71,1296.67,86.17
		z"/>
	<path class="st21" d="M1327.43,149.48c-0.6-0.57-1.17-1.19-1.67-1.89c-4.28-5.92-2.95-14.2,2.97-18.48
		c2.94-2.13,6.47-2.87,9.8-2.35c-4.53-4.26-11.58-4.86-16.81-1.08c-5.92,4.28-7.25,12.56-2.97,18.48
		C1320.9,147.14,1324.06,148.95,1327.43,149.48z"/>
	<path class="st20" d="M1282.67,125.43c0,0-5.85,7.56-3.5,13.62c0,0,2.82,7.3,6.92,7.8c0,0-6.27,1.19-8.63-7.48
		C1275.1,130.71,1281.42,125.62,1282.67,125.43z"/>
	<path class="st22" d="M1278.93,168.85c0,0-1.47,13.42,16.9,16.74c0,0-6.86,2.76-14.64-5.5
		C1281.19,180.09,1275.38,173.91,1278.93,168.85z"/>
	<path class="st20" d="M1317.99,179.66c0,0,7.36,14.28,22.22,1.33c0,0-1.18,7.42-12.84,7.01
		C1327.38,188.01,1318.37,187.06,1317.99,179.66z"/>
	<path class="st22" d="M1317.99,92.15c0,0,7.95-12.42,21.68-2.92c0,0-2.77-6.2-11.85-5.53C1327.82,83.7,1318.84,84.56,1317.99,92.15
		z"/>
	<path class="st21" d="M1286.81,128.9c0,0,3.5,1.41,4,6.54c0.5,5.13-4,8-4,8S1292.92,135.66,1286.81,128.9z"/>
	<path class="st21" d="M1360.83,91.59c0,0,1.95,10.76,12.1,9.95C1372.93,101.55,1364.48,99.75,1360.83,91.59z"/>
	<path class="st21" d="M1337.01,176.5c0,0-8.36-7.05-15.67,0.05C1321.34,176.54,1329,172.54,1337.01,176.5z"/>
	<path class="st21" d="M1321.02,94.65c0,0,7.7,7.76,15.61,1.35C1336.64,95.99,1328.65,99.31,1321.02,94.65z"/>
	<path class="st21" d="M1368.95,128.5c0,0-6.41,8.85,1.2,15.62C1370.15,144.12,1365.59,136.78,1368.95,128.5z"/>
	<path class="st21" d="M1284.25,102.45c0,0,10.92,0.44,12.34-9.65C1296.6,92.8,1293.01,100.66,1284.25,102.45z"/>
	<path class="st21" d="M1295.92,181.46c0,0-0.96-10.89-11.15-11.01C1284.77,170.45,1293.02,173.01,1295.92,181.46z"/>
	<path class="st21" d="M1372.77,168.98c0,0-10.91,0.75-11.22,10.94C1361.55,179.92,1364.26,171.71,1372.77,168.98z"/>
</g>
<rect x="892.71" y="-0.36" class="st23" width="274.4" height="272.49"/>
<g>
	<path class="st15" d="M1029.56,119.99c9.02,0,16.33,7.31,16.33,16.33s-7.31,16.33-16.33,16.33c-9.02,0-16.33-7.31-16.33-16.33
		S1020.54,119.99,1029.56,119.99L1029.56,119.99z"/>
	<path class="st15" d="M1029.56,83.7c6.18,0,11.18,3.78,11.18,8.45c0,4.67-5.01,8.45-11.18,8.45c-6.18,0-11.18-3.78-11.18-8.45
		c0-0.29,0.02-0.57,0.06-0.85C1019,87.03,1023.76,83.7,1029.56,83.7L1029.56,83.7z"/>
	<path class="st15" d="M1029.56,171.21c6.18,0,11.18,3.78,11.18,8.45c0,4.67-5.01,8.45-11.18,8.45c-6.18,0-11.18-3.78-11.18-8.45
		C1018.38,175,1023.38,171.21,1029.56,171.21L1029.56,171.21z"/>
	<path class="st15" d="M1082.36,135.91c0,6.6-4.05,11.96-9.04,11.96c-4.99,0-9.04-5.35-9.04-11.96c0-6.6,4.05-11.96,9.04-11.96
		C1078.31,123.95,1082.36,129.3,1082.36,135.91L1082.36,135.91z"/>
	<path class="st15" d="M994.19,135.91c0,6.13-3.75,11.09-8.38,11.09c-4.63,0-8.38-4.97-8.38-11.09c0-6.13,3.75-11.09,8.38-11.09
		C990.43,124.82,994.19,129.78,994.19,135.91L994.19,135.91z"/>
	<path class="st15" d="M998.82,87.53c-2.75-3.33-9.33-2.45-14.7,1.98c-5.37,4.43-7.5,10.72-4.76,14.06
		c2.75,3.33,9.33,2.45,14.7-1.98C999.44,97.16,1001.57,90.87,998.82,87.53L998.82,87.53z"/>
	<path class="st15" d="M997.99,184.24c-2.64,3.2-8.96,2.35-14.11-1.9c-5.16-4.25-7.2-10.29-4.56-13.49c2.64-3.2,8.96-2.35,14.11,1.9
		C998.59,175,1000.63,181.04,997.99,184.24L997.99,184.24z"/>
	<path class="st15" d="M1060.16,87.46c0.57-0.69,1.31-1.19,2.17-1.51c3.14-1.17,7.92,0.07,11.97,3.42
		c5.17,4.26,7.22,10.31,4.57,13.52c-2.64,3.21-8.97,2.35-14.14-1.9C1059.57,96.71,1057.52,90.66,1060.16,87.46L1060.16,87.46z"/>
	<path class="st15" d="M1060.2,184.24c2.64,3.2,8.96,2.35,14.11-1.9c5.16-4.25,7.2-10.29,4.56-13.49c-2.64-3.2-8.96-2.35-14.11,1.9
		C1059.61,175,1057.56,181.04,1060.2,184.24L1060.2,184.24z"/>
	<polygon class="st15" points="1023.71,90.1 984.25,131.01 985.58,132.29 985.09,132.8 988.31,135.91 1027.76,176.82 1026.44,178.1 
		1026.93,178.61 1023.71,181.72 984.25,140.81 985.58,139.53 985.09,139.02 988.31,135.91 1027.76,95 1026.44,93.72 1026.93,93.21 
		1023.71,90.1 	"/>
	<path class="st16" d="M1076.4,124.66C1076.41,124.68,1076.38,124.64,1076.4,124.66c1.35,1.16,2.01,2.68,2.87,4.42
		c3.09,6.23,1.08,13.51-4.48,16.27c-3.21,1.59-5.37-0.23-8.51-1.94c2.38,3.5,6.88,6,10.98,3.42c3.33-2.1,7.19-10.08,4.11-16.31
		C1080.08,127.92,1079.64,126.52,1076.4,124.66z"/>
	<path class="st17" d="M1060.95,86.7C1060.97,86.7,1060.92,86.7,1060.95,86.7c1.79-0.37,3.86-0.64,5.92-0.26
		c7.3,1.37,11.25,7.99,11.16,12.62c-0.04,2.4-2.18,5.06-5.62,5.61c7.02,0.94,7.76-3.89,7.58-6.11c-0.24-3.03-2.51-6.99-6.7-9.99
		c-1.31-0.94-1.96-1.36-4.37-2.29C1066.02,85.17,1062.56,85.31,1060.95,86.7z"/>
	<path class="st18" d="M1079.98,171.39c-0.01,0.03-0.02,0.05-0.02,0.08c-0.35,1.78-0.75,2.81-1.7,4.62
		c-3.43,6.51-9.89,9.46-14.41,8.51c-2.34-0.49-3.9-3.36-4.26-6.78c-2.13,5.86,2.1,8.04,4.71,8.26c5.24,0.45,11.58-4.27,13.51-7.52
		C1079.27,176.1,1080.21,174.24,1079.98,171.39z"/>
	<path class="st19" d="M1025.91,152.25c5.57,1.33,11.76-0.41,15.79-4.96c6.08-6.88,5.43-17.41-1.37-23.34
		c0.38,0.5,3.88,5.45-0.1,16.14c-4.2,11.27-14.33,12.15-14.33,12.15L1025.91,152.25z"/>
	<path class="st20" d="M997.06,86.17c0,0-4.43-2.85-12.94,3.34c0,0-7.83,6.3-5.43,12.97C978.68,102.48,979.53,88.71,997.06,86.17z"
		/>
	<path class="st21" d="M1027.81,149.48c-0.6-0.57-1.17-1.19-1.67-1.89c-4.28-5.92-2.95-14.2,2.97-18.48
		c2.94-2.13,6.47-2.87,9.8-2.35c-4.53-4.26-11.58-4.86-16.81-1.08c-5.92,4.28-7.25,12.56-2.97,18.48
		C1021.28,147.14,1024.45,148.95,1027.81,149.48z"/>
	<path class="st20" d="M983.05,125.43c0,0-5.85,7.56-3.5,13.62c0,0,2.82,7.3,6.92,7.8c0,0-6.27,1.19-8.63-7.48
		C975.49,130.71,981.81,125.62,983.05,125.43z"/>
	<path class="st22" d="M979.31,168.85c0,0-1.47,13.42,16.9,16.74c0,0-6.86,2.76-14.64-5.5
		C981.57,180.09,975.76,173.91,979.31,168.85z"/>
	<path class="st20" d="M1018.38,179.66c0,0,7.36,14.28,22.22,1.33c0,0-1.18,7.42-12.84,7.01
		C1027.76,188.01,1018.75,187.06,1018.38,179.66z"/>
	<path class="st22" d="M1018.38,92.15c0,0,7.95-12.42,21.68-2.92c0,0-2.77-6.2-11.85-5.53C1028.21,83.7,1019.23,84.56,1018.38,92.15
		z"/>
	<path class="st21" d="M987.19,128.9c0,0,3.5,1.41,4,6.54c0.5,5.13-4,8-4,8S993.3,135.66,987.19,128.9z"/>
	<path class="st21" d="M1061.22,91.59c0,0,1.95,10.76,12.1,9.95C1073.32,101.55,1064.87,99.75,1061.22,91.59z"/>
	<path class="st21" d="M1037.39,176.5c0,0-8.36-7.05-15.67,0.05C1021.72,176.54,1029.38,172.54,1037.39,176.5z"/>
	<path class="st21" d="M1021.41,94.65c0,0,7.7,7.76,15.61,1.35C1037.02,95.99,1029.04,99.31,1021.41,94.65z"/>
	<path class="st21" d="M1069.34,128.5c0,0-6.41,8.85,1.2,15.62C1070.54,144.12,1065.98,136.78,1069.34,128.5z"/>
	<path class="st21" d="M984.64,102.45c0,0,10.92,0.44,12.34-9.65C996.98,92.8,993.4,100.66,984.64,102.45z"/>
	<path class="st21" d="M996.3,181.46c0,0-0.96-10.89-11.15-11.01C985.15,170.45,993.41,173.01,996.3,181.46z"/>
	<path class="st21" d="M1073.16,168.98c0,0-10.91,0.75-11.22,10.94C1061.93,179.92,1064.64,171.71,1073.16,168.98z"/>
</g>
<rect x="600.39" y="-0.36" class="st1" width="274.4" height="272.49"/>
<g>
	<path class="st15" d="M737.24,119.99c9.02,0,16.33,7.31,16.33,16.33s-7.31,16.33-16.33,16.33c-9.02,0-16.33-7.31-16.33-16.33
		S728.22,119.99,737.24,119.99L737.24,119.99z"/>
	<path class="st15" d="M737.24,83.7c6.17,0,11.18,3.78,11.18,8.45c0,4.67-5.01,8.45-11.18,8.45c-6.18,0-11.18-3.78-11.18-8.45
		c0-0.29,0.02-0.57,0.06-0.85C726.67,87.03,731.44,83.7,737.24,83.7L737.24,83.7z"/>
	<path class="st15" d="M737.24,171.21c6.17,0,11.18,3.78,11.18,8.45c0,4.67-5.01,8.45-11.18,8.45c-6.18,0-11.18-3.78-11.18-8.45
		C726.06,175,731.06,171.21,737.24,171.21L737.24,171.21z"/>
	<path class="st15" d="M790.04,135.91c0,6.6-4.05,11.96-9.04,11.96c-4.99,0-9.04-5.35-9.04-11.96c0-6.6,4.05-11.96,9.04-11.96
		C785.99,123.95,790.04,129.3,790.04,135.91L790.04,135.91z"/>
	<path class="st15" d="M701.86,135.91c0,6.13-3.75,11.09-8.38,11.09c-4.63,0-8.38-4.97-8.38-11.09c0-6.13,3.75-11.09,8.38-11.09
		C698.11,124.82,701.86,129.78,701.86,135.91L701.86,135.91z"/>
	<path class="st15" d="M706.5,87.53c-2.75-3.33-9.33-2.45-14.7,1.98c-5.37,4.43-7.5,10.72-4.76,14.06c2.75,3.33,9.33,2.45,14.7-1.98
		C707.12,97.16,709.25,90.87,706.5,87.53L706.5,87.53z"/>
	<path class="st15" d="M705.67,184.24c-2.64,3.2-8.96,2.35-14.11-1.9c-5.16-4.25-7.2-10.29-4.56-13.49c2.64-3.2,8.96-2.35,14.11,1.9
		C706.26,175,708.31,181.04,705.67,184.24L705.67,184.24z"/>
	<path class="st15" d="M767.84,87.46c0.57-0.69,1.31-1.19,2.17-1.51c3.14-1.17,7.92,0.07,11.97,3.42
		c5.17,4.26,7.22,10.31,4.57,13.52c-2.64,3.21-8.97,2.35-14.14-1.9C767.24,96.71,765.2,90.66,767.84,87.46L767.84,87.46z"/>
	<path class="st15" d="M767.88,184.24c2.64,3.2,8.96,2.35,14.11-1.9c5.16-4.25,7.2-10.29,4.56-13.49c-2.64-3.2-8.96-2.35-14.11,1.9
		C767.28,175,765.24,181.04,767.88,184.24L767.88,184.24z"/>
	<polygon class="st15" points="731.38,90.1 691.93,131.01 693.26,132.29 692.76,132.8 695.99,135.91 735.44,176.82 734.12,178.1 
		734.61,178.61 731.38,181.72 691.93,140.81 693.26,139.53 692.76,139.02 695.99,135.91 735.44,95 734.12,93.72 734.61,93.21 
		731.38,90.1 	"/>
	<path class="st16" d="M784.07,124.66C784.09,124.68,784.06,124.64,784.07,124.66c1.35,1.16,2.01,2.68,2.87,4.42
		c3.09,6.23,1.08,13.51-4.48,16.27c-3.21,1.59-5.37-0.23-8.51-1.94c2.38,3.5,6.88,6,10.98,3.42c3.33-2.1,7.19-10.08,4.11-16.31
		C787.76,127.92,787.32,126.52,784.07,124.66z"/>
	<path class="st17" d="M768.63,86.7C768.65,86.7,768.6,86.7,768.63,86.7c1.79-0.37,3.86-0.64,5.92-0.26
		c7.3,1.37,11.25,7.99,11.16,12.62c-0.04,2.4-2.18,5.06-5.62,5.61c7.02,0.94,7.76-3.89,7.58-6.11c-0.24-3.03-2.51-6.99-6.7-9.99
		c-1.31-0.94-1.96-1.36-4.37-2.29C773.7,85.17,770.24,85.31,768.63,86.7z"/>
	<path class="st18" d="M787.66,171.39c-0.01,0.03-0.02,0.05-0.02,0.08c-0.35,1.78-0.75,2.81-1.7,4.62
		c-3.43,6.51-9.89,9.46-14.41,8.51c-2.34-0.49-3.9-3.36-4.26-6.78c-2.13,5.86,2.1,8.04,4.71,8.26c5.24,0.45,11.58-4.27,13.51-7.52
		C786.95,176.1,787.89,174.24,787.66,171.39z"/>
	<path class="st19" d="M733.59,152.25c5.57,1.33,11.76-0.41,15.79-4.96c6.08-6.88,5.43-17.41-1.37-23.34
		c0.38,0.5,3.88,5.45-0.1,16.14c-4.2,11.27-14.33,12.15-14.33,12.15L733.59,152.25z"/>
	<path class="st20" d="M704.73,86.17c0,0-4.43-2.85-12.94,3.34c0,0-7.83,6.3-5.43,12.97C686.36,102.48,687.21,88.71,704.73,86.17z"
		/>
	<path class="st21" d="M735.49,149.48c-0.6-0.57-1.17-1.19-1.67-1.89c-4.28-5.92-2.95-14.2,2.97-18.48c2.94-2.13,6.47-2.87,9.8-2.35
		c-4.53-4.26-11.58-4.86-16.81-1.08c-5.92,4.28-7.25,12.56-2.97,18.48C728.96,147.14,732.12,148.95,735.49,149.48z"/>
	<path class="st20" d="M690.73,125.43c0,0-5.85,7.56-3.5,13.62c0,0,2.82,7.3,6.92,7.8c0,0-6.27,1.19-8.63-7.48
		C683.16,130.71,689.48,125.62,690.73,125.43z"/>
	<path class="st22" d="M686.99,168.85c0,0-1.47,13.42,16.9,16.74c0,0-6.86,2.76-14.64-5.5
		C689.25,180.09,683.44,173.91,686.99,168.85z"/>
	<path class="st20" d="M726.06,179.66c0,0,7.36,14.28,22.22,1.33c0,0-1.18,7.42-12.84,7.01
		C735.44,188.01,726.43,187.06,726.06,179.66z"/>
	<path class="st22" d="M726.06,92.15c0,0,7.95-12.42,21.68-2.92c0,0-2.77-6.2-11.85-5.53C735.88,83.7,726.91,84.56,726.06,92.15z"/>
	<path class="st21" d="M694.87,128.9c0,0,3.5,1.41,4,6.54c0.5,5.13-4,8-4,8S700.98,135.66,694.87,128.9z"/>
	<path class="st21" d="M768.89,91.59c0,0,1.95,10.76,12.1,9.95C781,101.55,772.54,99.75,768.89,91.59z"/>
	<path class="st21" d="M745.07,176.5c0,0-8.36-7.05-15.67,0.05C729.4,176.54,737.06,172.54,745.07,176.5z"/>
	<path class="st21" d="M729.09,94.65c0,0,7.7,7.76,15.61,1.35C744.7,95.99,736.72,99.31,729.09,94.65z"/>
	<path class="st21" d="M777.02,128.5c0,0-6.41,8.85,1.2,15.62C778.22,144.12,773.65,136.78,777.02,128.5z"/>
	<path class="st21" d="M692.32,102.45c0,0,10.92,0.44,12.34-9.65C704.66,92.8,701.08,100.66,692.32,102.45z"/>
	<path class="st21" d="M703.98,181.46c0,0-0.96-10.89-11.15-11.01C692.83,170.45,701.09,173.01,703.98,181.46z"/>
	<path class="st21" d="M780.84,168.98c0,0-10.91,0.75-11.22,10.94C769.61,179.92,772.32,171.71,780.84,168.98z"/>
</g>
</svg>
