<?xml version="1.0" encoding="utf-8"?>
<!-- Generator: Adobe Illustrator 25.3.1, SVG Export Plug-In . SVG Version: 6.00 Build 0)  -->
<svg version="1.1" id="Camada_1" xmlns="http://www.w3.org/2000/svg" xmlns:xlink="http://www.w3.org/1999/xlink" x="0px" y="0px"
	 viewBox="0 0 514.02 250.86" style="enable-background:new 0 0 514.02 250.86;" xml:space="preserve">
<style type="text/css">
	.st0{fill:#0D0D0C;}
	.st1{fill:#FFFFFF;}
	.st2{fill-rule:evenodd;clip-rule:evenodd;fill:#FFFFFF;}
	.st3{opacity:0.28;fill:#FFFFFF;}
	.st4{opacity:0.55;fill:#FFFFFF;}
	.st5{opacity:0.32;fill:#FFFFFF;}
	.st6{opacity:0.61;fill:#FFFFFF;}
	.st7{opacity:0.12;fill:#FFFFFF;}
	.st8{opacity:0.43;fill:#FFFFFF;}
	.st9{opacity:0.12;fill-rule:evenodd;clip-rule:evenodd;fill:#FFFFFF;}
</style>
<rect y="-2.72" class="st0" width="514.02" height="256.3"/>
<g>
	<g>
		<path class="st1" d="M275.02,156.1v-5.79c-4.39,4.56-9.65,6.85-15.79,6.85c-7.14,0-13.03-2.37-17.68-7.11
			c-4.65-4.74-6.98-10.65-6.98-17.73c0-6.84,2.25-12.61,6.76-17.29c4.62-4.85,10.41-7.28,17.38-7.28c6.38,0,11.85,2.31,16.41,6.93
			V93.71h8.51v62.39H275.02z M243.34,132.23c0,4.86,1.59,8.88,4.78,12.07c3.19,3.19,7.03,4.78,11.54,4.78
			c4.15,0,7.82-1.62,11.01-4.87c3.19-3.25,4.78-7.03,4.78-11.36c0-4.68-1.59-8.66-4.78-11.93c-3.19-3.28-6.92-4.91-11.19-4.91
			c-4.45,0-8.25,1.57-11.41,4.69C244.92,123.82,243.34,127.67,243.34,132.23z"/>
		<path class="st1" d="M293.71,156.1V93.71h30.71v8.34h-21.76v18.6h21.76v8.16h-21.76v27.29H293.71z"/>
		<path class="st1" d="M370.94,156.1v-5.79c-4.39,4.56-9.65,6.85-15.79,6.85c-7.14,0-13.03-2.37-17.68-7.11
			c-4.65-4.74-6.98-10.65-6.98-17.73c0-6.84,2.25-12.61,6.76-17.29c4.62-4.85,10.41-7.28,17.38-7.28c6.43,0,11.88,2.31,16.32,6.93
			v-5.7h8.6v47.12H370.94z M339.26,132.23c0,4.86,1.59,8.88,4.78,12.07c3.19,3.19,7.03,4.78,11.54,4.78c4.15,0,7.82-1.62,11.01-4.87
			c3.19-3.25,4.78-7.03,4.78-11.36c0-4.68-1.59-8.66-4.78-11.93c-3.19-3.28-6.92-4.91-11.19-4.91c-4.45,0-8.25,1.57-11.41,4.69
			C340.84,123.82,339.26,127.67,339.26,132.23z"/>
		<path class="st1" d="M415.17,156.1l-10.88-17.81l-11.41,17.81h-9.39l15.97-24.48l-14.13-22.64h9.48l9.83,16.15l10-16.15h9.83
			l-14.92,22.38l15.09,24.75H415.17z"/>
	</g>
	<g>
		<path class="st2" d="M149.72,107.08c10.42,0,18.86,8.45,18.86,18.86s-8.45,18.86-18.86,18.86c-10.42,0-18.86-8.45-18.86-18.86
			S139.3,107.08,149.72,107.08L149.72,107.08z"/>
		<path class="st2" d="M149.72,65.17c7.13,0,12.91,4.37,12.91,9.76c0,5.39-5.78,9.76-12.91,9.76c-7.13,0-12.91-4.37-12.91-9.76
			c0-0.33,0.02-0.66,0.06-0.98C137.52,69.02,143.02,65.17,149.72,65.17L149.72,65.17z"/>
		<path class="st2" d="M149.72,166.23c7.13,0,12.91,4.37,12.91,9.76c0,5.39-5.78,9.76-12.91,9.76c-7.13,0-12.91-4.37-12.91-9.76
			C136.8,170.6,142.59,166.23,149.72,166.23L149.72,166.23z"/>
		<path class="st2" d="M210.69,125.46c0,7.63-4.67,13.81-10.44,13.81c-5.77,0-10.44-6.18-10.44-13.81c0-7.63,4.67-13.81,10.44-13.81
			C206.02,111.65,210.69,117.83,210.69,125.46L210.69,125.46z"/>
		<path class="st2" d="M108.87,125.46c0,7.07-4.33,12.81-9.68,12.81c-5.35,0-9.68-5.73-9.68-12.81c0-7.07,4.33-12.81,9.68-12.81
			C104.53,112.65,108.87,118.39,108.87,125.46L108.87,125.46z"/>
		<path class="st2" d="M114.22,69.6c-3.17-3.85-10.78-2.83-16.98,2.29c-6.21,5.11-8.66,12.38-5.49,16.23
			c3.17,3.85,10.78,2.83,16.98-2.29C114.94,80.72,117.4,73.45,114.22,69.6L114.22,69.6z"/>
		<path class="st2" d="M113.26,181.27c-3.05,3.7-10.34,2.71-16.3-2.2c-5.96-4.91-8.32-11.88-5.27-15.58
			c3.05-3.7,10.34-2.71,16.3,2.2C113.95,170.6,116.31,177.58,113.26,181.27L113.26,181.27z"/>
		<path class="st2" d="M185.05,69.51c0.66-0.8,1.51-1.38,2.5-1.75c3.63-1.35,9.14,0.09,13.83,3.95c5.97,4.92,8.33,11.91,5.28,15.61
			c-3.05,3.7-10.36,2.72-16.33-2.2C184.37,80.2,182,73.21,185.05,69.51L185.05,69.51z"/>
		<path class="st2" d="M185.1,181.27c3.05,3.7,10.34,2.71,16.3-2.2c5.96-4.91,8.32-11.88,5.27-15.58c-3.05-3.7-10.34-2.71-16.3,2.2
			C184.41,170.6,182.05,177.58,185.1,181.27L185.1,181.27z"/>
		<polygon class="st2" points="142.96,72.56 97.4,119.8 98.93,121.28 98.36,121.87 102.09,125.46 147.64,172.7 146.11,174.18 
			146.68,174.77 142.96,178.36 97.4,131.12 98.93,129.64 98.36,129.05 102.09,125.46 147.64,78.22 146.11,76.74 146.68,76.15 
			142.96,72.56 		"/>
		<path class="st3" d="M203.8,112.47C203.82,112.49,203.78,112.45,203.8,112.47c1.56,1.34,2.33,3.1,3.32,5.1
			c3.56,7.19,1.24,15.6-5.18,18.78c-3.71,1.84-6.2-0.27-9.83-2.24c2.75,4.04,7.94,6.93,12.68,3.95c3.84-2.42,8.31-11.64,4.74-18.83
			C208.06,116.23,207.55,114.61,203.8,112.47z"/>
		<path class="st4" d="M185.96,68.63C185.99,68.64,185.93,68.63,185.96,68.63c2.07-0.42,4.46-0.74,6.83-0.3
			c8.42,1.58,12.99,9.22,12.89,14.57c-0.05,2.77-2.52,5.84-6.5,6.48c8.11,1.08,8.96-4.49,8.75-7.05c-0.28-3.5-2.89-8.07-7.74-11.54
			c-1.51-1.08-2.26-1.57-5.05-2.64C191.82,66.87,187.83,67.03,185.96,68.63z"/>
		<path class="st5" d="M207.94,166.43c-0.01,0.03-0.02,0.06-0.03,0.09c-0.4,2.05-0.86,3.24-1.97,5.33
			c-3.96,7.52-11.42,10.93-16.64,9.82c-2.71-0.57-4.51-3.88-4.92-7.83c-2.46,6.77,2.42,9.28,5.44,9.54
			c6.05,0.52,13.38-4.93,15.61-8.68C207.13,171.87,208.21,169.73,207.94,166.43z"/>
		<path class="st6" d="M145.51,144.34c6.43,1.54,13.58-0.47,18.23-5.73c7.02-7.95,6.27-20.1-1.58-26.95
			c0.44,0.58,4.48,6.3-0.11,18.63c-4.85,13.02-16.55,14.03-16.55,14.03L145.51,144.34z"/>
		<path class="st7" d="M112.18,68.02c0,0-5.12-3.29-14.94,3.86c0,0-9.04,7.27-6.28,14.98C90.97,86.86,91.95,70.96,112.18,68.02z"/>
		<path class="st8" d="M147.7,141.13c-0.7-0.66-1.35-1.38-1.93-2.18c-4.95-6.84-3.41-16.39,3.43-21.34
			c3.4-2.46,7.47-3.31,11.31-2.71c-5.23-4.92-13.38-5.61-19.41-1.25c-6.84,4.95-8.38,14.5-3.43,21.34
			C140.16,138.43,143.81,140.52,147.7,141.13z"/>
		<path class="st7" d="M96.01,113.36c0,0-6.76,8.73-4.04,15.73c0,0,3.26,8.43,7.99,9.01c0,0-7.25,1.37-9.96-8.64
			C87.27,119.46,94.57,113.58,96.01,113.36z"/>
		<path class="st9" d="M91.69,163.5c0,0-1.7,15.5,19.52,19.33c0,0-7.92,3.18-16.91-6.35C94.3,176.48,87.59,169.35,91.69,163.5z"/>
		<path class="st7" d="M136.8,175.99c0,0,8.5,16.49,25.66,1.53c0,0-1.36,8.57-14.82,8.1C147.64,185.62,137.24,184.53,136.8,175.99z"
			/>
		<path class="st9" d="M136.8,74.93c0,0,9.18-14.35,25.03-3.38c0,0-3.2-7.16-13.68-6.38C148.15,65.17,137.79,66.17,136.8,74.93z"/>
		<path class="st8" d="M100.79,117.37c0,0,4.04,1.62,4.62,7.55c0.58,5.93-4.62,9.24-4.62,9.24S107.85,125.17,100.79,117.37z"/>
		<path class="st8" d="M186.28,74.28c0,0,2.25,12.42,13.98,11.5C200.25,85.78,190.49,83.71,186.28,74.28z"/>
		<path class="st8" d="M158.76,172.33c0,0-9.65-8.14-18.1,0.05C140.67,172.39,149.51,167.76,158.76,172.33z"/>
		<path class="st8" d="M140.31,77.81c0,0,8.89,8.97,18.03,1.56C158.33,79.37,149.12,83.19,140.31,77.81z"/>
		<path class="st8" d="M195.65,116.9c0,0-7.41,10.23,1.39,18.04C197.04,134.94,191.77,126.47,195.65,116.9z"/>
		<path class="st8" d="M97.84,86.83c0,0,12.62,0.5,14.25-11.15C112.1,75.68,107.96,84.76,97.84,86.83z"/>
		<path class="st8" d="M111.31,178.07c0,0-1.11-12.58-12.87-12.72C98.44,165.35,107.97,168.3,111.31,178.07z"/>
		<path class="st8" d="M200.06,163.65c0,0-12.6,0.87-12.96,12.63C187.1,176.28,190.23,166.8,200.06,163.65z"/>
	</g>
</g>
</svg>
